<svg width="105" height="17" viewBox="0 0 105 17" fill="none" xmlns="http://www.w3.org/2000/svg">
<path d="M87.4333 15.8082V4.09707H90.9787V6.24716H91.1083C91.3523 5.53555 91.764 4.97388 92.3434 4.56216C92.9229 4.15044 93.6142 3.94458 94.4173 3.94458C95.2306 3.94458 95.9269 4.15298 96.5064 4.56978C97.0858 4.98659 97.4543 5.54571 97.6119 6.24716H97.7339C97.9525 5.55079 98.3794 4.99421 99.0148 4.57741C99.6502 4.15552 100.4 3.94458 101.264 3.94458C102.372 3.94458 103.272 4.30039 103.963 5.012C104.654 5.71853 105 6.68938 105 7.92454V15.8082H101.272V8.77848C101.272 8.19394 101.122 7.74918 100.822 7.4442C100.522 7.13414 100.133 6.97911 99.6553 6.97911C99.1419 6.97911 98.7378 7.14685 98.443 7.48232C98.1533 7.81271 98.0084 8.25747 98.0084 8.8166V15.8082H94.4249V8.74035C94.4249 8.19648 94.2775 7.76697 93.9827 7.45182C93.6879 7.13668 93.299 6.97911 92.8161 6.97911C92.4908 6.97911 92.2037 7.05789 91.9546 7.21546C91.7055 7.36795 91.5098 7.58652 91.3675 7.87117C91.2303 8.15581 91.1616 8.49129 91.1616 8.87759V15.8082H87.4333Z" fill="black"/>
<path d="M78.3964 15.8082V4.09706H82.018V6.23191H82.14C82.3535 5.4593 82.7017 4.88492 83.1846 4.50878C83.6675 4.12756 84.2291 3.93695 84.8696 3.93695C85.0424 3.93695 85.2203 3.94966 85.4033 3.97507C85.5863 3.99541 85.7566 4.02844 85.9141 4.07419V7.31458C85.7362 7.25358 85.5024 7.2053 85.2127 7.16972C84.928 7.13413 84.6739 7.11634 84.4502 7.11634C84.008 7.11634 83.609 7.21546 83.2532 7.4137C82.9025 7.60685 82.6254 7.87879 82.4221 8.22951C82.2239 8.57515 82.1248 8.98179 82.1248 9.44942V15.8082H78.3964Z" fill="black"/>
<path d="M71.0522 16.0293C69.817 16.0293 68.7572 15.7752 67.8728 15.2669C66.9934 14.7586 66.3174 14.052 65.8447 13.1473C65.372 12.2374 65.1356 11.1853 65.1356 9.99076C65.1356 8.79118 65.372 7.73901 65.8447 6.83424C66.3225 5.92439 67.0011 5.21532 67.8804 4.70702C68.7649 4.19873 69.8196 3.94458 71.0446 3.94458C72.1272 3.94458 73.0701 4.14027 73.8732 4.53166C74.6814 4.92305 75.3117 5.47709 75.7641 6.19379C76.2216 6.9054 76.463 7.74155 76.4884 8.70223H73.004C72.9329 8.10244 72.7296 7.63227 72.3941 7.29171C72.0637 6.95115 71.6316 6.78087 71.0979 6.78087C70.6659 6.78087 70.2872 6.90286 69.9619 7.14685C69.6366 7.38574 69.3824 7.74155 69.1994 8.21427C69.0215 8.6819 68.9326 9.26136 68.9326 9.95264C68.9326 10.6439 69.0215 11.2285 69.1994 11.7063C69.3824 12.179 69.6366 12.5373 69.9619 12.7813C70.2872 13.0202 70.6659 13.1397 71.0979 13.1397C71.4436 13.1397 71.7486 13.066 72.0129 12.9185C72.2823 12.7711 72.5034 12.5551 72.6762 12.2705C72.849 11.9807 72.9583 11.63 73.004 11.2183H76.4884C76.4528 12.1841 76.2114 13.0278 75.7641 13.7496C75.3219 14.4714 74.6992 15.0331 73.8961 15.4346C73.0981 15.8311 72.1501 16.0293 71.0522 16.0293Z" fill="black"/>
<path d="M61.1404 16.0293C60.5915 16.0293 60.1213 15.8361 59.7299 15.4498C59.3436 15.0635 59.153 14.5959 59.1581 14.0469C59.153 13.5082 59.3436 13.0481 59.7299 12.6669C60.1213 12.2806 60.5915 12.0875 61.1404 12.0875C61.6589 12.0875 62.1163 12.2806 62.5128 12.6669C62.9144 13.0481 63.1177 13.5082 63.1228 14.0469C63.1177 14.4129 63.0211 14.7459 62.833 15.0457C62.6501 15.3456 62.4086 15.5845 62.1087 15.7624C61.8139 15.9403 61.4911 16.0293 61.1404 16.0293Z" fill="black"/>
<path d="M51.5813 16.0293C50.3563 16.0293 49.299 15.7879 48.4095 15.305C47.5251 14.817 46.8439 14.1232 46.3661 13.2235C45.8934 12.3188 45.6571 11.2437 45.6571 9.99839C45.6571 8.78864 45.896 7.73138 46.3738 6.82662C46.8516 5.91677 47.5251 5.21024 48.3942 4.70702C49.2634 4.19873 50.2877 3.94458 51.4669 3.94458C52.3005 3.94458 53.0629 4.07419 53.7542 4.33342C54.4455 4.59266 55.0428 4.97642 55.546 5.48472C56.0492 5.99301 56.4406 6.62076 56.7201 7.36795C56.9997 8.11007 57.1395 8.96146 57.1395 9.92214V10.8523H46.9609V8.68698H53.6704C53.6653 8.29051 53.5712 7.93725 53.3883 7.62719C53.2053 7.31712 52.9537 7.07568 52.6334 6.90286C52.3183 6.72496 51.9549 6.63601 51.5431 6.63601C51.1263 6.63601 50.7527 6.73004 50.4224 6.91811C50.092 7.1011 49.8302 7.35271 49.637 7.67293C49.4439 7.98808 49.3422 8.34642 49.3321 8.74798V10.9514C49.3321 11.4292 49.4261 11.8486 49.6142 12.2095C49.8022 12.5653 50.0691 12.8423 50.4147 13.0405C50.7604 13.2388 51.1721 13.3379 51.6499 13.3379C51.9803 13.3379 52.2802 13.2921 52.5496 13.2007C52.819 13.1092 53.0502 12.9745 53.2434 12.7966C53.4365 12.6187 53.5814 12.4001 53.678 12.1409L57.1014 12.24C56.959 13.0075 56.6464 13.6759 56.1636 14.2452C55.6858 14.8094 55.058 15.2491 54.2803 15.5642C53.5026 15.8743 52.6029 16.0293 51.5813 16.0293Z" fill="black"/>
<path d="M43.9816 7.67293L40.5582 7.76443C40.5226 7.52044 40.4261 7.30442 40.2685 7.11635C40.1109 6.92319 39.9051 6.77325 39.6509 6.66651C39.4018 6.55468 39.1121 6.49877 38.7817 6.49877C38.3497 6.49877 37.9812 6.58518 37.6762 6.758C37.3763 6.93082 37.2289 7.16464 37.234 7.45945C37.2289 7.68818 37.3204 7.88642 37.5084 8.05415C37.7016 8.22189 38.0447 8.35659 38.5377 8.45825L40.7946 8.88522C41.9637 9.10887 42.8328 9.47993 43.4021 9.99839C43.9765 10.5168 44.2662 11.203 44.2713 12.057C44.2662 12.8601 44.0273 13.559 43.5546 14.1537C43.087 14.7484 42.4465 15.211 41.6333 15.5414C40.82 15.8667 39.8898 16.0293 38.8427 16.0293C37.1704 16.0293 35.8514 15.6862 34.8856 15C33.925 14.3087 33.376 13.3836 33.2388 12.2247L36.9214 12.1332C37.0027 12.5602 37.2136 12.8855 37.5542 13.1092C37.8947 13.3328 38.3293 13.4446 38.858 13.4446C39.3358 13.4446 39.7246 13.3557 40.0245 13.1778C40.3244 12.9999 40.4769 12.7635 40.482 12.4687C40.4769 12.2044 40.36 11.9934 40.1312 11.8359C39.9025 11.6732 39.5442 11.5461 39.0562 11.4547L37.0129 11.0658C35.8387 10.8523 34.9644 10.4584 34.39 9.88402C33.8157 9.30456 33.531 8.56753 33.5361 7.67293C33.531 6.89016 33.7394 6.22175 34.1613 5.6677C34.5832 5.10858 35.183 4.68161 35.9607 4.3868C36.7384 4.09199 37.6558 3.94458 38.7131 3.94458C40.299 3.94458 41.5494 4.27751 42.4643 4.94338C43.3793 5.60417 43.885 6.51402 43.9816 7.67293Z" fill="black"/>
<path d="M31.3841 0.193359V15.8082H27.6557V0.193359H31.3841Z" fill="black"/>
<path d="M21.5619 10.7532V4.09705H25.2827V15.8082H21.7297V13.6276H21.6077C21.3484 14.3443 20.9062 14.9136 20.281 15.3355C19.6609 15.7523 18.9112 15.9607 18.0318 15.9607C17.2338 15.9607 16.5323 15.7777 15.9275 15.4117C15.3226 15.0457 14.8524 14.5349 14.5169 13.8792C14.1815 13.2184 14.0112 12.4458 14.0061 11.5614V4.09705H17.7345V10.8294C17.7395 11.4648 17.9073 11.9655 18.2377 12.3314C18.5681 12.6974 19.0179 12.8804 19.5872 12.8804C19.9583 12.8804 20.2912 12.7991 20.586 12.6364C20.8859 12.4687 21.1223 12.2272 21.2951 11.9121C21.473 11.5919 21.5619 11.2056 21.5619 10.7532Z" fill="black"/>
<path d="M0 15.8082V0.193359H6.45028C7.61936 0.193359 8.62833 0.422093 9.47718 0.87956C10.3311 1.33194 10.9894 1.96477 11.4519 2.77804C11.9145 3.58624 12.1457 4.52658 12.1457 5.59909C12.1457 6.67668 11.9094 7.61957 11.4367 8.42776C10.969 9.23087 10.3006 9.85353 9.43143 10.2957C8.56225 10.738 7.53041 10.9591 6.33591 10.9591H2.35595V7.98554H5.63446C6.20375 7.98554 6.67901 7.88642 7.06023 7.68819C7.44654 7.48995 7.73881 7.21293 7.93704 6.85712C8.13528 6.49623 8.2344 6.07689 8.2344 5.59909C8.2344 5.11621 8.13528 4.6994 7.93704 4.34868C7.73881 3.99287 7.44654 3.71839 7.06023 3.52524C6.67393 3.33209 6.19867 3.23551 5.63446 3.23551H3.7741V15.8082H0Z" fill="black"/>
</svg>
